<svg xmlns="http://www.w3.org/2000/svg" viewBox="0 0 800 600" width="100%" height="100%">
  <defs>
    <!-- Grunge & Distressed Ink Filters -->
    <filter id="grunge-filter" x="-20%" y="-20%" width="140%" height="140%">
      <feTurbulence type="fractalNoise" baseFrequency="0.04" numOctaves="4" result="noise" />
      <feDisplacementMap in="SourceGraphic" in2="noise" scale="5" xChannelSelector="R" yChannelSelector="G" result="displaced" />
      <feColorMatrix type="matrix" values="1 0 0 0 0  0 1 0 0 0  0 0 1 0 0  0 0 0 18 -6" result="contrastNoise" />
      <feComposite in="displaced" in2="contrastNoise" operator="in" />
    </filter>

    <!-- Stippled Halftone Ink Spray Texture -->
    <pattern id="stipple" width="6" height="6" patternUnits="userSpaceOnUse">
      <circle cx="1.5" cy="1.5" r="0.8" fill="#FFFFFF" opacity="0.6" />
      <circle cx="4.5" cy="4.5" r="0.6" fill="#FFFFFF" opacity="0.4" />
      <circle cx="4.5" cy="1.5" r="0.4" fill="#FFFFFF" opacity="0.3" />
      <circle cx="1.5" cy="4.5" r="0.5" fill="#FFFFFF" opacity="0.5" />
    </pattern>

    <!-- Grunge Mask for Authentically Eroded Stamp Edges -->
    <mask id="stamp-mask">
      <rect width="800" height="600" fill="#FFFFFF" />
      <!-- Procedural erosion cutouts -->
      <g fill="#000000">
        <circle cx="150" cy="140" r="12" />
        <circle cx="185" cy="132" r="7" />
        <circle cx="270" cy="120" r="10" />
        <circle cx="420" cy="115" r="14" />
        <circle cx="580" cy="130" r="9" />
        <circle cx="690" cy="180" r="16" />
        <circle cx="715" cy="320" r="12" />
        <circle cx="700" cy="420" r="18" />
        <circle cx="630" cy="475" r="15" />
        <circle cx="480" cy="485" r="12" />
        <circle cx="310" cy="480" r="16" />
        <circle cx="170" cy="470" r="14" />
        <circle cx="105" cy="380" r="15" />
        <circle cx="95" cy="240" r="13" />
        <!-- Letter ink scratches -->
        <rect x="230" y="220" width="8" height="40" rx="3" transform="rotate(25 230 220)" />
        <rect x="360" y="190" width="6" height="50" rx="2" transform="rotate(-15 360 190)" />
        <rect x="490" y="240" width="10" height="35" rx="3" transform="rotate(10 490 240)" />
        <rect x="290" y="360" width="9" height="45" rx="2" transform="rotate(-30 290 360)" />
        <rect x="420" y="380" width="7" height="40" rx="2" transform="rotate(20 420 380)" />
        <rect x="560" y="350" width="10" height="55" rx="3" transform="rotate(-12 560 350)" />
      </g>
    </mask>
  </defs>

  <!-- Solid Black Background as in User's Image -->
  <rect width="800" height="600" fill="#000000" rx="0" />

  <!-- Tilted Rubber Stamp Group (-6.5deg rotation) -->
  <g transform="translate(400, 300) rotate(-6.5) translate(-400, -300)" mask="url(#stamp-mask)">
    
    <!-- Outer Halftone Grunge Halo Spray -->
    <rect 
      x="70" 
      y="100" 
      width="660" 
      height="400" 
      rx="64" 
      ry="64" 
      fill="none" 
      stroke="url(#stipple)" 
      stroke-width="26" 
      opacity="0.75"
    />

    <!-- Main Distressed Stamp Frame -->
    <rect 
      x="80" 
      y="110" 
      width="640" 
      height="380" 
      rx="56" 
      ry="56" 
      fill="none" 
      stroke="#FFFFFF" 
      stroke-width="18" 
      stroke-linecap="round"
      stroke-linejoin="round"
    />

    <!-- Inner Secondary Distressed Border Line -->
    <rect 
      x="96" 
      y="126" 
      width="608" 
      height="348" 
      rx="44" 
      ry="44" 
      fill="none" 
      stroke="#FFFFFF" 
      stroke-width="3.5" 
      stroke-dasharray="14 8 4 6"
      opacity="0.6"
    />

    <!-- Text: CYBER (Top Line, Bold Slab / Heavy Impact) -->
    <text 
      x="400" 
      y="262" 
      text-anchor="middle" 
      fill="#FFFFFF" 
      font-family="'Impact', 'Arial Black', -apple-system, BlinkMacSystemFont, sans-serif" 
      font-size="142" 
      font-weight="900" 
      letter-spacing="5"
    >
      CYBER
    </text>

    <!-- Text: HYGIENE (Bottom Line, Condensed Heavy) -->
    <text 
      x="400" 
      y="412" 
      text-anchor="middle" 
      fill="#FFFFFF" 
      font-family="'Impact', 'Arial Black', -apple-system, BlinkMacSystemFont, sans-serif" 
      font-size="124" 
      font-weight="900" 
      letter-spacing="2"
    >
      HYGIENE
    </text>

    <!-- Subtle Halftone Texture Overlay on Letters -->
    <rect 
      x="80" 
      y="110" 
      width="640" 
      height="380" 
      rx="56" 
      fill="url(#stipple)" 
      mix-blend-mode="overlay" 
      opacity="0.35"
    />
  </g>
</svg>
